<svg width="600" height="200" viewBox="0 0 600 200" fill="none" xmlns="http://www.w3.org/2000/svg">
<rect width="600" height="200" fill="#f5f5f5"/>
<path d="M0,0 L100,0 C150,0 150,50 200,50 L145,100 C120,120 80,120 55,100 L0,50 Z" fill="#ff6633" opacity="0.7"/>
<path d="M600,0 L500,0 C450,0 450,50 400,50 L455,100 C480,120 520,120 545,100 L600,50 Z" fill="#ffb8a7" opacity="0.6"/>
<path d="M0,200 L100,200 C150,200 150,150 200,150 L145,100 C120,80 80,80 55,100 L0,150 Z" fill="#ffb8a7" opacity="0.5"/>
<path d="M400,200 L500,200 C550,200 550,150 600,150 L545,100 C520,80 480,80 455,100 L400,150 Z" fill="#008080" opacity="0.4"/>
</svg>
